<svg width="18" height="33" viewBox="0 0 18 33" fill="none" xmlns="http://www.w3.org/2000/svg">
<path d="M9.5127 32.2885L16.7853 25.0159C17.0904 24.7547 17.1259 24.2956 16.8646 23.9905C16.6034 23.6855 16.1443 23.6499 15.8392 23.9112C15.8108 23.9356 15.7842 23.9621 15.7599 23.9905L9.72364 30.0195L9.72364 1.22724C9.72364 0.825619 9.39802 0.5 8.99634 0.5C8.59466 0.5 8.2691 0.825619 8.2691 1.22724L8.2691 30.0195L2.24015 23.9905C1.9789 23.6855 1.51978 23.6499 1.21473 23.9112C0.909669 24.1725 0.874108 24.6316 1.13542 24.9366C1.15979 24.9651 1.18629 24.9916 1.21473 25.0159L8.48735 32.2886C8.77091 32.5705 9.22902 32.5705 9.5127 32.2885Z" fill="#333333"/>
</svg>
