<?xml version="1.0" encoding="UTF-8" standalone="no"?>
<svg
   width="32"
   height="32"
   viewBox="0 0 32 32"
   fill="none"
   version="1.1"
   id="svg4"
   sodipodi:docname="facebook-icon.svg"
   xml:space="preserve"
   inkscape:version="1.2.2 (b0a8486541, 2022-12-01)"
   xmlns:inkscape="http://www.inkscape.org/namespaces/inkscape"
   xmlns:sodipodi="http://sodipodi.sourceforge.net/DTD/sodipodi-0.dtd"
   xmlns="http://www.w3.org/2000/svg"
   xmlns:svg="http://www.w3.org/2000/svg"><defs
     id="defs8" /><sodipodi:namedview
     id="namedview6"
     pagecolor="#ffffff"
     bordercolor="#000000"
     borderopacity="0.25"
     inkscape:showpageshadow="2"
     inkscape:pageopacity="0.0"
     inkscape:pagecheckerboard="0"
     inkscape:deskcolor="#d1d1d1"
     showgrid="false"
     inkscape:zoom="7.0937473"
     inkscape:cx="-52.017641"
     inkscape:cy="23.682828"
     inkscape:window-width="1366"
     inkscape:window-height="748"
     inkscape:window-x="0"
     inkscape:window-y="20"
     inkscape:window-maximized="1"
     inkscape:current-layer="svg4" /><rect
     style="fill:#1a1a1a;stroke-width:0"
     id="rect274"
     width="83.840279"
     height="46.569164"
     x="-99.644073"
     y="-8.5430222" /><g
     style="fill:none"
     id="g285"
     transform="translate(-76.503587,-2.5616973)"><path
       d="M 28.1773,0.25 H 4.32273 C 3.24257,0.25 2.20666,0.67909 1.44287,1.44287 0.67909,2.20666 0.25,3.24257 0.25,4.32273 V 28.1773 c 0,1.0801 0.42909,2.116 1.19287,2.8798 0.76379,0.7638 1.7997,1.1929 2.87986,1.1929 H 16.0078 V 18.9354 h -2.6629 v -5.3258 h 2.6409 v -2.4069 c 0,-2.1783 1.0377,-5.5815 5.6043,-5.5815 l 4.1138,0.01651 v 4.56299 h -2.9875 c -0.4857,0 -1.1769,0.2419 -1.1769,1.2794 v 2.1298 h 4.2323 L 25.286,18.9357 H 21.3336 V 32.25 h 6.8437 c 0.5348,0 1.0644,-0.1053 1.5585,-0.31 0.4942,-0.2047 0.9431,-0.5047 1.3213,-0.8829 0.3782,-0.3782 0.6782,-0.8271 0.8829,-1.3213 0.2047,-0.4941 0.31,-1.0237 0.31,-1.5585 V 4.32273 C 32.25,3.78789 32.1447,3.25829 31.94,2.76416 31.7353,2.27004 31.4353,1.82106 31.0571,1.44287 30.6789,1.06469 30.23,0.764691 29.7358,0.560018 29.2417,0.355344 28.7121,0.25 28.1773,0.25 Z"
       fill="#ffffff"
       id="path276" /></g></svg>
