<svg width="22" height="15" viewBox="0 0 22 15" fill="none" xmlns="http://www.w3.org/2000/svg">
<path d="M0.5 0.75C0.5 0.948912 0.579018 1.13968 0.719669 1.28033C0.860321 1.42098 1.05109 1.5 1.25 1.5H20.75C20.9489 1.5 21.1397 1.42098 21.2803 1.28033C21.421 1.13968 21.5 0.948912 21.5 0.75C21.5 0.551088 21.421 0.360322 21.2803 0.21967C21.1397 0.0790178 20.9489 0 20.75 0H1.25C1.05109 0 0.860321 0.0790178 0.719669 0.21967C0.579018 0.360322 0.5 0.551088 0.5 0.75ZM4.25 6.75H20.75C20.9489 6.75 21.1397 6.82902 21.2803 6.96967C21.421 7.11032 21.5 7.30109 21.5 7.5C21.5 7.69891 21.421 7.88968 21.2803 8.03033C21.1397 8.17098 20.9489 8.25 20.75 8.25H4.25C4.05109 8.25 3.86032 8.17098 3.71967 8.03033C3.57902 7.88968 3.5 7.69891 3.5 7.5C3.5 7.30109 3.57902 7.11032 3.71967 6.96967C3.86032 6.82902 4.05109 6.75 4.25 6.75ZM11 13.5H20.75C20.9489 13.5 21.1397 13.579 21.2803 13.7197C21.421 13.8603 21.5 14.0511 21.5 14.25C21.5 14.4489 21.421 14.6397 21.2803 14.7803C21.1397 14.921 20.9489 15 20.75 15H11C10.8011 15 10.6103 14.921 10.4697 14.7803C10.329 14.6397 10.25 14.4489 10.25 14.25C10.25 14.0511 10.329 13.8603 10.4697 13.7197C10.6103 13.579 10.8011 13.5 11 13.5Z" fill="#333333"/>
</svg>
